<?xml version="1.0" encoding="UTF-8"?>
<svg width="200px" height="200px" viewBox="0 0 200 200" version="1.1" xmlns="http://www.w3.org/2000/svg" xmlns:xlink="http://www.w3.org/1999/xlink">
    <title>Robot Avatar 2</title>
    <g id="Robot-Avatar-2" stroke="none" stroke-width="1" fill="none" fill-rule="evenodd">
        <circle id="Background" fill="#6366F1" cx="100" cy="100" r="100"></circle>
        <g id="Robot-Head" transform="translate(35.000000, 40.000000)">
            <rect id="Head" stroke="#000000" stroke-width="4" fill="#E0E0E0" x="2" y="2" width="126" height="106" rx="10"></rect>
            <rect id="Antenna-Left" stroke="#000000" stroke-width="3" fill="#DDDDDD" x="30.5" y="-15.5" width="6" height="18" rx="2"></rect>
            <rect id="Antenna-Right" stroke="#000000" stroke-width="3" fill="#DDDDDD" x="90.5" y="-15.5" width="6" height="18" rx="2"></rect>
            <circle id="Antenna-Top-Left" stroke="#000000" stroke-width="3" fill="#FFC107" cx="33.5" cy="-22.5" r="6"></circle>
            <circle id="Antenna-Top-Right" stroke="#000000" stroke-width="3" fill="#FFC107" cx="93.5" cy="-22.5" r="6"></circle>
            <g id="Eyes" transform="translate(25.000000, 25.000000)">
                <rect id="Left-Eye" stroke="#000000" stroke-width="3" fill="#000000" x="0" y="0" width="25" height="25" rx="5"></rect>
                <rect id="Right-Eye" stroke="#000000" stroke-width="3" fill="#000000" x="55" y="0" width="25" height="25" rx="5"></rect>
                <circle id="Left-Pupil" fill="#F44336" cx="12.5" cy="12.5" r="6"></circle>
                <circle id="Right-Pupil" fill="#F44336" cx="67.5" cy="12.5" r="6"></circle>
                <path d="M7.5,7.5 C8.88071187,7.5 10,8.61928813 10,10 C10,11.3807119 8.88071187,12.5 7.5,12.5 C6.11928813,12.5 5,11.3807119 5,10 C5,8.61928813 6.11928813,7.5 7.5,7.5 Z" id="Left-Highlight" fill="#FFFFFF"></path>
                <path d="M62.5,7.5 C63.8807119,7.5 65,8.61928813 65,10 C65,11.3807119 63.8807119,12.5 62.5,12.5 C61.1192881,12.5 60,11.3807119 60,10 C60,8.61928813 61.1192881,7.5 62.5,7.5 Z" id="Right-Highlight" fill="#FFFFFF"></path>
            </g>
            <rect id="Mouth" stroke="#000000" stroke-width="3" fill="#666666" x="45.5" y="75.5" width="40" height="10" rx="5"></rect>
            <line x1="50.5" y1="80.5" x2="80.5" y2="80.5" id="Mouth-Line" stroke="#000000" stroke-width="2" stroke-linecap="round"></line>
            <rect id="Control-Panel" stroke="#000000" stroke-width="3" fill="#444444" x="35.5" y="95.5" width="60" height="8" rx="2"></rect>
            <circle id="Button-1" stroke="#000000" stroke-width="1" fill="#00BCD4" cx="45.5" cy="99.5" r="2"></circle>
            <circle id="Button-2" stroke="#000000" stroke-width="1" fill="#00BCD4" cx="55.5" cy="99.5" r="2"></circle>
            <circle id="Button-3" stroke="#000000" stroke-width="1" fill="#00BCD4" cx="65.5" cy="99.5" r="2"></circle>
            <circle id="Button-4" stroke="#000000" stroke-width="1" fill="#00BCD4" cx="75.5" cy="99.5" r="2"></circle>
            <circle id="Button-5" stroke="#000000" stroke-width="1" fill="#00BCD4" cx="85.5" cy="99.5" r="2"></circle>
        </g>
    </g>
</svg>